<?xml version="1.0" standalone="no"?>
<!DOCTYPE svg PUBLIC "-//W3C//DTD SVG 20010904//EN"
 "http://www.w3.org/TR/2001/REC-SVG-20010904/DTD/svg10.dtd">
<svg version="1.0" xmlns="http://www.w3.org/2000/svg"
 width="91.000000pt" height="91.000000pt" viewBox="0 0 91.000000 91.000000"
 preserveAspectRatio="xMidYMid meet">
<metadata>
Created by potrace 1.14, written by Peter Selinger 2001-2017
</metadata>
<g transform="translate(0.000000,91.000000) scale(0.100000,-0.100000)"
fill="#000000" stroke="none">
<path d="M110 445 l0 -215 30 0 30 0 0 73 c0 54 5 78 19 96 l18 24 74 -97 c70
-92 75 -96 112 -96 45 0 49 -8 -55 127 -43 55 -78 105 -78 111 0 5 34 48 75
95 41 48 75 89 75 92 0 3 -15 5 -33 5 -30 0 -43 -10 -118 -96 l-84 -96 -3 96
-3 96 -29 0 -30 0 0 -215z"/>
<path d="M545 646 c-90 -40 -132 -177 -90 -297 31 -86 82 -119 185 -119 117 0
162 41 168 152 l4 68 -86 0 c-85 0 -86 0 -86 -25 0 -24 3 -25 53 -25 30 0 56
-3 60 -6 11 -11 -15 -64 -45 -89 -58 -49 -157 -24 -191 48 -22 45 -22 139 0
184 32 68 115 93 181 53 18 -11 38 -31 44 -45 8 -18 19 -25 41 -25 26 0 29 2
23 26 -19 73 -81 114 -173 114 -32 -1 -71 -7 -88 -14z"/>
</g>
</svg>
